<?xml version="1.0" encoding="UTF-8"?>
<svg xmlns="http://www.w3.org/2000/svg" xmlns:xlink="http://www.w3.org/1999/xlink" width="2834.88" height="2834.88" viewBox="0 0 2834.88 2834.88">
<path fill-rule="evenodd" fill="rgb(0%, 0%, 0%)" fill-opacity="1" d="M 1647.011719 785.570312 C 1766.671875 802.058594 1876.441406 832.050781 1959.421875 876.449219 C 2190.148438 999.898438 2321.660156 1252.578125 2295.820312 1460.148438 C 2283.578125 1558.488281 2252.71875 1622.011719 2215.210938 1683.308594 C 2337.78125 1646.839844 2398.480469 1731.660156 2413.539062 1801.210938 C 2443.199219 1938.207031 2350.511719 2030.484375 2215.820312 2079.113281 C 2125.609375 2111.683594 2033.601562 2103.839844 1971.800781 2065.152344 C 1955.289062 2115.085938 1917.378906 2170.578125 1859.898438 2229.996094 C 1763.171875 2329.984375 1576.660156 2352.078125 1470.761719 2360.179688 C 1457.128906 2361.222656 1440.429688 2361.820312 1422.648438 2361.929688 L 1422.648438 2361.941406 C 1420.871094 2361.949219 1419.089844 2361.953125 1417.320312 2361.949219 C 1415.558594 2361.953125 1413.78125 2361.949219 1412 2361.941406 L 1412 2361.929688 C 1394.210938 2361.820312 1377.511719 2361.222656 1363.890625 2360.179688 C 1257.980469 2352.078125 1071.46875 2329.984375 974.742188 2229.996094 C 917.261719 2170.578125 879.359375 2115.085938 862.84375 2065.152344 C 801.046875 2103.839844 709.035156 2111.683594 618.824219 2079.113281 C 484.132812 2030.484375 391.445312 1938.207031 421.109375 1801.210938 C 436.171875 1731.660156 496.863281 1646.839844 619.441406 1683.308594 C 581.921875 1622.011719 551.070312 1558.488281 538.828125 1460.148438 C 512.988281 1252.578125 644.496094 999.898438 875.226562 876.449219 C 981.621094 819.53125 1132.058594 786.28125 1290.910156 774.820312 C 1334.988281 748.558594 1410.921875 693.980469 1432.691406 619.5 C 1463.949219 512.558594 1448.671875 472.699219 1448.671875 472.699219 C 1448.671875 472.699219 1526.078125 580.679688 1530.699219 644.359375 C 1535.46875 710.101562 1527.878906 746.140625 1527.878906 746.140625 C 1527.878906 746.140625 1588.28125 727.371094 1635.300781 679.761719 C 1690.28125 624.101562 1705.558594 607.300781 1705.558594 607.300781 C 1702.601562 631.550781 1675.328125 724.058594 1647.011719 785.570312 "/>
<path fill-rule="evenodd" fill="rgb(100%, 100%, 100%)" fill-opacity="1" d="M 1427.191406 1241.070312 C 1490.769531 1167.820312 1630.011719 1045.5 1815.410156 1103.289062 C 1993.238281 1158.730469 2111.398438 1370.960938 2093.019531 1526.53125 C 2063.28125 1778.328125 1820.359375 1810.480469 1820.359375 1810.480469 C 1820.359375 1810.480469 1857.210938 2005.039062 1744.628906 2111.800781 C 1667.320312 2185.113281 1555.898438 2207.480469 1477.21875 2214.523438 C 1447.871094 2217.148438 1410.511719 2217.253906 1386.519531 2215.320312 C 1311.199219 2209.246094 1178.449219 2181.648438 1113.808594 2117.878906 C 1011.5 2016.941406 1034.011719 1810.480469 1034.011719 1810.480469 C 1034.011719 1810.480469 791.101562 1778.328125 761.359375 1526.53125 C 742.980469 1370.960938 861.132812 1158.730469 1038.96875 1103.289062 C 1224.371094 1045.5 1363.609375 1167.820312 1427.191406 1241.070312 "/>
<path fill-rule="evenodd" fill="rgb(100%, 100%, 100%)" fill-opacity="1" d="M 534.101562 1745.941406 C 621.011719 1719.191406 705.472656 1809.660156 735.53125 1841.566406 C 811.882812 1922.609375 831.375 2002.03125 831.375 2002.03125 C 831.375 2002.03125 791.210938 2031.886719 681.925781 2026.34375 C 565.601562 2020.445312 521.105469 1966.371094 485.371094 1898.296875 C 449.632812 1830.21875 495.4375 1757.839844 534.101562 1745.941406 Z M 2300.539062 1745.941406 C 2339.210938 1757.839844 2385.011719 1830.21875 2349.28125 1898.296875 C 2313.539062 1966.371094 2269.039062 2020.445312 2152.71875 2026.34375 C 2043.429688 2031.886719 2003.269531 2002.03125 2003.269531 2002.03125 C 2003.269531 2002.03125 2022.761719 1922.609375 2099.109375 1841.566406 C 2129.171875 1809.660156 2213.640625 1719.191406 2300.539062 1745.941406 "/>
<path fill-rule="evenodd" fill="rgb(0%, 0%, 0%)" fill-opacity="1" d="M 1776.171875 1469.328125 C 1774.679688 1536.640625 1732.621094 1590.679688 1681.03125 1590.679688 C 1628.488281 1590.679688 1585.851562 1534.648438 1585.851562 1465.640625 C 1585.851562 1396.621094 1628.488281 1340.589844 1681.03125 1340.589844 C 1687.28125 1340.589844 1693.390625 1341.378906 1699.300781 1342.898438 C 1689.269531 1357.441406 1683.148438 1376.75 1683.148438 1397.910156 C 1683.148438 1443.148438 1711.109375 1479.878906 1745.539062 1479.878906 C 1756.671875 1479.878906 1767.121094 1476.050781 1776.171875 1469.328125 Z M 1268.53125 1469.328125 C 1267.039062 1536.640625 1224.980469 1590.679688 1173.390625 1590.679688 C 1120.859375 1590.679688 1078.210938 1534.648438 1078.210938 1465.640625 C 1078.210938 1396.621094 1120.859375 1340.589844 1173.390625 1340.589844 C 1179.640625 1340.589844 1185.75 1341.378906 1191.671875 1342.898438 C 1181.628906 1357.441406 1175.511719 1376.75 1175.511719 1397.910156 C 1175.511719 1443.148438 1203.46875 1479.878906 1237.910156 1479.878906 C 1249.03125 1479.878906 1259.480469 1476.050781 1268.53125 1469.328125 "/>
<path fill-rule="evenodd" fill="rgb(100%, 100%, 100%)" fill-opacity="1" d="M 1534.140625 1749.511719 C 1483.191406 1700.898438 1375.269531 1705.980469 1320.238281 1749.511719 "/>
<path fill-rule="evenodd" fill="rgb(0%, 0%, 0%)" fill-opacity="1" d="M 1550.640625 1732.289062 C 1560.160156 1741.378906 1560.5 1756.46875 1551.390625 1765.96875 C 1542.289062 1775.46875 1527.160156 1775.808594 1517.640625 1766.71875 C 1496.320312 1746.378906 1462.761719 1738.238281 1429.101562 1738.769531 C 1394.289062 1739.320312 1358.878906 1749.339844 1335.070312 1768.171875 C 1324.75 1776.339844 1309.71875 1774.609375 1301.53125 1764.308594 C 1293.351562 1754 1295.078125 1739.011719 1305.410156 1730.839844 C 1336.628906 1706.140625 1382.691406 1691.859375 1428.339844 1691.140625 C 1475.128906 1690.398438 1521.011719 1704.019531 1550.640625 1732.289062 "/>
<path fill-rule="evenodd" fill="rgb(100%, 100%, 100%)" fill-opacity="1" d="M 1635.789062 2006.980469 C 1534.71875 2103.410156 1320.609375 2093.34375 1211.449219 2006.980469 "/>
<path fill-rule="evenodd" fill="rgb(0%, 0%, 0%)" fill-opacity="1" d="M 1619.289062 1989.765625 C 1628.820312 1980.679688 1643.941406 1981.019531 1653.050781 1990.519531 C 1662.148438 2000.023438 1661.808594 2015.113281 1652.289062 2024.199219 C 1597.601562 2076.375 1512.640625 2100.707031 1426.28125 2099.34375 C 1341.050781 2098 1254.910156 2071.757812 1196.621094 2025.648438 C 1186.289062 2017.480469 1184.558594 2002.484375 1192.738281 1992.183594 C 1200.929688 1981.882812 1215.960938 1980.148438 1226.28125 1988.316406 C 1277.160156 2028.566406 1352.640625 2050.535156 1427.03125 2051.710938 C 1500.28125 2052.863281 1572.910156 2034.015625 1619.289062 1989.765625 "/>
</svg>
